<?xml version="1.0" encoding="iso-8859-1"?>
<!-- Generator: Adobe Illustrator 19.1.0, SVG Export Plug-In . SVG Version: 6.00 Build 0)  -->
<svg version="1.1" xmlns="http://www.w3.org/2000/svg" xmlns:xlink="http://www.w3.org/1999/xlink" x="0px" y="0px"
	 viewBox="0 0 100 100" style="enable-background:new 0 0 100 100;" xml:space="preserve">
<g id="Layer_1">
	<circle style="fill:#222;stroke:#fff;stroke-miterlimit:10;" cx="50.147" cy="49.678" r="47.316"/>
</g>
<g id="Layer_3">
	<g>
		<path d="M9.746,62.21c-0.094,0.298-0.295,0.476-0.664,0.302c-1.005-0.501-1.426-1.332-1.484-3.031
			c-0.109-3.748,0.34-9.583,0.892-12.067c0.093-0.397,0.317-0.482,0.555-0.248c0.575,0.567,0.845,1.389,0.65,3.354
			c-0.206,2.291-0.534,5.609-0.648,9.17c1.212-4.103,3.478-9.928,5.089-13.466c0.112-0.229,0.325-0.36,0.586-0.132
			c0.644,0.548,0.915,1.096,0.807,3.014c-0.157,2.379-0.373,5.468-0.354,9.064c1.316-4.451,4.218-11.616,5.674-14.341
			c0.203-0.353,0.448-0.369,0.581-0.057c0.356,0.774,0.323,1.853-0.443,3.723c-1.097,2.679-3.384,7.864-5.034,12.929
			c-0.11,0.327-0.288,0.499-0.664,0.302c-0.98-0.507-1.482-1.268-1.576-3.007c-0.089-1.815,0.017-4.576,0.197-6.96
			C12.555,54.052,10.878,58.551,9.746,62.21z"/>
		<path d="M20.646,55.785c0.126-1.848,0.924-4.994,1.458-6.429c0.134-0.333,0.277-0.447,0.519-0.289
			c0.447,0.278,0.9,1.226,0.654,2.534c-0.213,1.15-0.765,2.987-0.94,4.277c-0.196,1.493,0.092,2.385,0.821,2.141
			c1.031-0.326,1.896-2.198,2.163-3.984c0.06-0.239,0.229-0.26,0.37-0.1c0.285,0.321,0.347,0.827,0.224,1.481
			c-0.311,1.624-1.51,2.988-2.808,3.337C21.345,59.226,20.507,57.859,20.646,55.785z M24.194,48.349
			c-0.214,0.405-0.882,0.509-1.392,0c-0.538-0.526-0.608-1.253-0.344-1.747c0.266-0.494,1.013-0.396,1.482,0.15
			C24.404,47.273,24.409,47.943,24.194,48.349z"/>
		<path d="M28.044,56.686c1.138-0.206,2.313-2.311,2.739-4.338c0.081-0.344,0.33-0.436,0.51-0.137
			c0.215,0.341,0.259,0.875,0.153,1.5c-0.138,0.782-1.315,3.16-3.183,3.611c-1.611,0.382-2.768-0.501-2.906-3.148
			c-0.223-4.264,1.296-9.167,3.002-12.259c0.248-0.464,0.561-0.598,0.966-0.383c0.834,0.423,1.203,1.243,1.218,2.407
			c0.045,3.044-1.807,6.522-3.51,8.42C26.715,54.879,26.976,56.872,28.044,56.686z M29.623,43.663
			c-0.351-0.104-1.377,2.929-2.182,6.325c-0.109,0.427-0.195,0.848-0.258,1.262C29.67,47.826,29.975,43.769,29.623,43.663z"/>
		<path d="M33.375,55.257c1.138-0.206,2.313-2.31,2.739-4.337c0.081-0.345,0.33-0.437,0.51-0.137c0.216,0.34,0.259,0.875,0.153,1.5
			c-0.138,0.782-1.314,3.16-3.182,3.61c-1.612,0.383-2.769-0.5-2.906-3.146c-0.223-4.265,1.295-9.168,3.001-12.26
			c0.249-0.464,0.562-0.598,0.966-0.383c0.834,0.423,1.203,1.243,1.218,2.408c0.045,3.044-1.807,6.522-3.51,8.42
			C32.046,53.451,32.307,55.443,33.375,55.257z M34.955,42.234c-0.352-0.104-1.377,2.929-2.182,6.325
			c-0.109,0.427-0.195,0.848-0.259,1.262C35.002,46.397,35.306,42.34,34.955,42.234z"/>
		<path d="M42.314,53.383c-0.008,0.25-0.157,0.341-0.369,0.198c-0.512-0.335-0.94-1.189-0.812-2.565
			c0.297-3.435,1.861-9.743,2.866-13.317c0.116-0.404,0.272-0.47,0.548-0.37c1.024,0.396,1.385,0.996,1.558,2.664
			c0.22,2.302,0.765,5.262,1.473,8.551c0.619-3.993,1.986-9.552,3.005-12.708c0.111-0.327,0.339-0.314,0.546-0.096
			c0.534,0.603,0.76,1.536,0.183,3.554c-0.759,2.639-2.213,8.992-2.755,12.441c-0.03,0.257-0.134,0.334-0.426,0.264
			c-0.795-0.184-1.27-0.654-1.782-2.106c-0.495-1.383-1.24-4.538-1.706-7.941C43.705,45.406,42.496,50.353,42.314,53.383z"/>
		<path d="M57.66,39.53c0.128-0.357,0.301-0.454,0.52-0.288c0.459,0.324,0.912,1.271,0.666,2.579c-0.23,1.18-0.924,3.229-1.15,4.607
			c-0.232,1.454,0.012,2.457,0.787,2.199c0.938-0.3,1.791-2.219,2.174-4.036c0.061-0.24,0.216-0.306,0.365-0.123
			c0.148,0.184,0.304,0.764,0.177,1.493c-0.262,1.437-1.38,3.104-2.675,3.376c-1.27,0.266-2.118-0.303-2.41-1.393
			c-0.487,1.149-1.301,2.287-2.413,2.585c-2.156,0.578-3.386-2.249-2.214-5.569c1.146-3.238,2.697-4.772,3.857-5.083
			c0.996-0.267,1.665,0.374,1.861,1.29C57.357,40.53,57.505,39.969,57.66,39.53z M56.061,40.978c-0.761,0.129-2.05,2.09-2.771,4.495
			c-0.695,2.323-0.449,4.443,0.461,4.225c0.957-0.231,1.766-2.039,2.4-4.396C56.928,42.36,56.752,40.867,56.061,40.978z"/>
		<path d="M62.434,48.165c-1.678,0.326-2.183-1.378-2.083-3.045c0.101-1.666,0.673-4.255,1.615-6.769
			c0.117-0.305,0.354-0.344,0.597-0.185c0.715,0.629,0.879,1.703,0.398,3.248c-0.492,1.599-0.707,2.65-0.896,3.893
			c-0.183,1.266,0.11,2.083,0.656,1.986c0.923-0.172,1.763-2.137,2.475-4.489c0.827-2.756,1.07-4.537,1.545-5.732
			c0.146-0.387,0.295-0.477,0.543-0.294c0.459,0.324,0.918,1.294,0.673,2.603c-0.231,1.18-0.925,3.229-1.141,4.555
			c-0.248,1.483,0.104,2.432,0.928,2.162c0.961-0.308,1.733-2.154,2.203-4.02c0.059-0.24,0.262-0.318,0.41-0.135
			c0.143,0.16,0.333,0.78,0.183,1.516c-0.324,1.479-1.444,3.046-2.812,3.413c-1.507,0.404-2.365-0.386-2.539-1.779
			C64.669,46.399,63.757,47.91,62.434,48.165z"/>
		<path d="M75.891,45.255c-0.442,3.448-1.1,7.575-2.779,8.821c-0.414,0.309-0.896,0.364-1.476-0.127
			c-0.673-0.565-1.308-1.265-1.233-2.75c0.113-2.268,1.728-4.216,3.786-5.712c0.096-0.572,0.155-1.185,0.244-1.78
			c-0.492,0.853-1.173,1.557-2.031,1.787c-2.133,0.571-3.327-2.215-2.193-5.5c1.087-3.174,2.685-4.721,3.868-5.038
			c0.928-0.249,1.582,0.346,1.777,1.164c0.154-0.539,0.297-1.024,0.424-1.48c0.099-0.375,0.324-0.459,0.542-0.295
			c0.46,0.324,0.912,1.271,0.637,2.563c-0.322,1.577-1.031,4.773-1.403,7.283c1.688-1.496,2.621-3.112,3.219-4.589
			c0.09-0.223,0.298-0.279,0.406-0.059c0.104,0.196,0.124,0.737-0.104,1.469C79.049,42.669,77.629,44.044,75.891,45.255z
			 M74.74,36.047c-0.73,0.146-2.025,2.083-2.761,4.441c-0.718,2.329-0.426,4.438,0.508,4.213c0.911-0.22,1.701-1.996,2.337-4.354
			C75.602,37.406,75.425,35.912,74.74,36.047z M71.882,53.014c0.419,0.359,1.605-2.542,2.168-6.47
			C71.508,49.113,71.339,52.562,71.882,53.014z"/>
		<path d="M81.849,42.268c1.138-0.206,2.312-2.31,2.739-4.338c0.081-0.345,0.33-0.436,0.51-0.137c0.216,0.34,0.259,0.875,0.153,1.5
			c-0.138,0.782-1.315,3.16-3.183,3.611c-1.612,0.382-2.768-0.5-2.906-3.147c-0.222-4.264,1.297-9.168,3.003-12.26
			c0.247-0.463,0.56-0.597,0.965-0.382c0.834,0.423,1.203,1.243,1.218,2.407c0.045,3.044-1.807,6.522-3.509,8.42
			C80.521,40.461,80.78,42.454,81.849,42.268z M83.428,29.245c-0.351-0.104-1.377,2.929-2.182,6.325
			c-0.108,0.427-0.195,0.848-0.258,1.262C83.475,33.408,83.779,29.35,83.428,29.245z"/>
		<path d="M88.235,40.605c1.949-0.423,3.145-2.731,3.731-4.528c0.066-0.217,0.252-0.267,0.4-0.083
			c0.143,0.161,0.248,0.829-0.009,1.543c-0.595,1.675-2.095,3.22-3.873,3.721c-2.932,0.836-4.729-1.789-4.022-5.184
			c0.705-3.394,2.746-5.234,4.086-4.872c0.673,0.192,1.184,0.429,1.69,0.839c0.567,0.444,0.761,1.908,0.104,3.351
			c-0.764,1.695-2.155,2.715-4.132,1.828C86.041,39.554,86.988,40.865,88.235,40.605z M88.73,34.757
			c0.482-1.173,0.668-2.515,0.275-2.683c-0.593-0.264-2.145,1.643-2.644,4.137c-0.032,0.158-0.063,0.315-0.08,0.444
			C87.611,37.07,88.295,35.818,88.73,34.757z"/>
	</g>
</g>
<g id="Layer_2">
	<g>
		<path d="M22.085,71.309c-0.051-0.098-0.058-0.17,0.073-0.193c0.635-0.133,1.458-0.489,1.99-0.633
			c0.58-0.154,0.871,0.053,1.031,0.371c0.051,0.098,0.047,0.174-0.084,0.195c-0.864,0.158-1.461,0.527-2,0.647
			C22.545,71.818,22.248,71.639,22.085,71.309z"/>
		<path d="M33.339,66.492c0.145-0.062,0.261,0.092,0.279,0.348c0.032,0.488-0.025,1.062-0.418,2.471
			c-0.434,1.533-1.018,2.645-1.8,2.83c-0.501,0.121-0.9-0.256-0.999-0.764c-0.243,0.575-0.605,1.169-1.171,1.283
			c-0.73,0.146-1.061-0.572-0.988-1.511c0.061-0.837,0.324-2.124,0.818-3.386c0.059-0.152,0.178-0.172,0.275-0.086
			c0.38,0.308,0.455,0.821,0.21,1.619c-0.239,0.773-0.396,1.398-0.478,2.016c-0.08,0.629,0.04,1.033,0.304,0.949
			c0.46-0.135,0.681-1.027,1.036-2.203c0.425-1.379,0.547-2.27,0.796-2.869c0.075-0.182,0.139-0.223,0.271-0.147
			c0.219,0.165,0.447,0.651,0.325,1.304c-0.115,0.59-0.459,1.625-0.584,2.316c-0.136,0.744,0.005,1.129,0.344,1.051
			c0.409-0.098,0.898-1.049,1.232-2.305C32.514,67.584,33.107,66.604,33.339,66.492z"/>
		<path d="M35.89,70.576c0.974-0.211,1.571-1.363,1.864-2.262c0.033-0.107,0.126-0.133,0.201-0.041
			c0.07,0.08,0.122,0.414-0.006,0.771c-0.297,0.836-1.046,1.608-1.935,1.859c-1.466,0.417-2.363-0.895-2.011-2.59
			c0.353-1.697,1.373-2.615,2.042-2.436c0.336,0.097,0.591,0.215,0.845,0.42c0.283,0.223,0.38,0.953,0.052,1.676
			c-0.381,0.847-1.077,1.355-2.064,0.912C34.793,70.053,35.266,70.707,35.89,70.576z M36.137,67.656
			c0.24-0.586,0.334-1.258,0.138-1.342c-0.296-0.131-1.071,0.821-1.321,2.068c-0.016,0.078-0.031,0.156-0.039,0.221
			C35.577,68.811,35.919,68.186,36.137,67.656z"/>
		<path d="M39.708,69.852c-0.614,0.165-1.091-0.043-1.437-0.496c-0.039,0.271-0.092,0.584-0.131,0.855
			c-0.016,0.129-0.082,0.158-0.176,0.084c-0.236-0.186-0.442-0.49-0.4-1.258c0.056-1.047,1.178-5.941,1.679-7.268
			c0.064-0.178,0.157-0.203,0.293-0.066c0.261,0.277,0.4,0.799,0.158,1.795c-0.087,0.371-0.371,1.305-0.56,2.038
			c0.256-0.392,0.565-0.673,0.866-0.753c0.985-0.265,1.397,1.09,1.14,2.674C40.922,68.819,40.38,69.672,39.708,69.852z
			 M39.232,65.994c-0.375,0.684-0.674,1.794-0.863,2.801c0.113,0.33,0.363,0.66,0.695,0.646c0.43-0.016,0.869-0.506,1.182-2.031
			c0.31-1.485-0.019-2.154-0.291-2.105C39.705,65.346,39.484,65.541,39.232,65.994z"/>
		<path d="M47.869,67.393c0.468-0.15,0.886-1.096,1.077-2.002c0.03-0.119,0.111-0.141,0.182-0.062
			c0.075,0.091,0.167,0.39,0.101,0.743c-0.143,0.721-0.695,1.527-1.342,1.663c-0.636,0.134-1.042-0.132-1.188-0.675
			c-0.246,0.562-0.652,1.131-1.197,1.277c-1.078,0.288-1.681-1.127-1.104-2.772c0.556-1.589,1.343-2.358,1.922-2.515
			c0.475-0.127,0.803,0.17,0.906,0.602c0.306-1.359,0.764-3.172,1.022-3.873c0.073-0.193,0.181-0.211,0.278-0.075
			c0.265,0.339,0.363,0.847,0.109,1.845c-0.289,1.146-0.889,3.355-1.139,4.738C47.365,67.043,47.48,67.521,47.869,67.393z
			 M45.287,65.824c-0.358,1.164-0.215,2.205,0.24,2.096c0.466-0.111,0.908-0.963,1.17-2.163c0.328-1.466,0.306-2.242-0.033-2.163
			C46.302,63.678,45.651,64.635,45.287,65.824z"/>
		<path d="M50.703,66.607c0.974-0.211,1.571-1.363,1.864-2.263c0.033-0.108,0.126-0.132,0.2-0.04
			c0.071,0.08,0.123,0.414-0.004,0.771c-0.298,0.837-1.047,1.608-1.936,1.86c-1.466,0.416-2.363-0.895-2.011-2.591
			s1.373-2.615,2.042-2.435c0.336,0.096,0.591,0.213,0.845,0.418c0.282,0.223,0.38,0.955,0.052,1.676
			c-0.381,0.848-1.077,1.356-2.064,0.914C49.606,66.082,50.08,66.737,50.703,66.607z M50.951,63.686
			c0.24-0.586,0.333-1.256,0.137-1.34c-0.297-0.133-1.071,0.82-1.321,2.066c-0.016,0.08-0.032,0.158-0.04,0.223
			C50.391,64.842,50.732,64.216,50.951,63.686z"/>
		<path d="M55.541,60.605c0.094-0.16,0.169-0.157,0.232-0.012c0.1,0.234,0.041,0.572-0.205,1.134c-0.384,0.886-1.14,2.28-1.78,4.339
			c-0.032,0.107-0.069,0.205-0.2,0.18c-0.512-0.101-0.735-0.289-0.865-0.912c-0.171-0.824-0.302-2.563-0.23-3.873
			c0.012-0.141,0.092-0.213,0.206-0.156c0.47,0.223,0.642,0.636,0.67,1.386c0.03,0.948-0.027,1.659,0.148,2.966
			C53.976,64.08,54.971,61.627,55.541,60.605z"/>
		<path d="M57.785,64.709c0.974-0.211,1.571-1.363,1.864-2.262c0.033-0.107,0.126-0.133,0.2-0.041
			c0.071,0.08,0.123,0.414-0.004,0.771c-0.298,0.836-1.047,1.608-1.936,1.859c-1.466,0.417-2.363-0.895-2.011-2.59
			c0.353-1.697,1.373-2.615,2.042-2.436c0.336,0.096,0.591,0.215,0.845,0.42c0.283,0.222,0.38,0.953,0.052,1.675
			c-0.381,0.847-1.076,1.356-2.064,0.913C56.688,64.186,57.162,64.84,57.785,64.709z M58.033,61.789
			c0.24-0.587,0.333-1.258,0.137-1.342c-0.297-0.132-1.071,0.82-1.321,2.068c-0.016,0.078-0.032,0.156-0.039,0.221
			C57.473,62.943,57.814,62.318,58.033,61.789z"/>
		<path d="M60.967,63.833c0.568-0.103,1.155-1.153,1.368-2.167c0.041-0.174,0.165-0.219,0.255-0.068
			c0.107,0.169,0.13,0.438,0.076,0.748c-0.068,0.393-0.656,1.58-1.589,1.806c-0.807,0.19-1.384-0.251-1.452-1.573
			c-0.112-2.131,0.647-4.582,1.499-6.125c0.124-0.232,0.28-0.299,0.482-0.191c0.417,0.21,0.602,0.621,0.608,1.202
			c0.023,1.521-0.901,3.259-1.753,4.208C60.303,62.93,60.433,63.926,60.967,63.833z M61.756,57.326
			c-0.175-0.053-0.688,1.463-1.091,3.16c-0.054,0.214-0.097,0.424-0.128,0.631C61.779,59.406,61.932,57.379,61.756,57.326z"/>
		<path d="M69.393,62.047c-0.707,0.239-1.236,0.256-1.741-0.006c-0.275-0.148-0.471-0.369-0.572-0.654
			c-0.308,1.263-0.608,2.734-0.829,4.184c-0.018,0.117-0.089,0.174-0.175,0.084c-0.235-0.186-0.396-0.502-0.365-1.268
			c0.034-0.803,0.494-3.025,0.921-4.766c-0.251,0.314-0.594,0.519-1.008,0.592c0.023,1.062-0.373,2.459-1.167,2.971
			c-0.391,0.254-0.956,0.367-1.593-0.107c-0.701-0.532-0.777-1.604-0.514-2.656c0.229-0.906,0.768-1.77,1.45-2.003
			c0.342-0.116,0.566-0.065,0.882,0.187c0.363,0.287,0.727,0.252,0.898,1.125c0.016,0.057,0.011,0.133,0.015,0.193
			c0.738-0.209,1.256-1.242,1.616-2.355c0.063-0.18,0.186-0.188,0.283-0.053c0.096,0.125,0.186,0.273,0.232,0.496
			c0.377-0.584,0.987-1.133,1.62-0.719c0.692,0.448,0.722,1.533,0.532,2.589c-0.154,0.86-0.414,1.515-0.771,1.896
			c1.098-0.355,1.572-1.365,1.734-2.24c0.026-0.182,0.167-0.168,0.232-0.062c0.062,0.096,0.125,0.377,0.027,0.801
			C70.885,61.176,70.199,61.768,69.393,62.047z M63.764,59.346c-0.23,0.348-0.451,0.816-0.598,1.34
			c-0.265,1.002-0.139,2.123,0.217,2.289c0.398,0.191,0.99-0.428,1.278-1.621c0.102-0.414,0.149-0.785,0.161-1.111
			C64.348,60.133,63.896,59.795,63.764,59.346z M64.679,59.101c-0.146-0.358-0.373-0.234-0.337,0.128
			c0.018,0.256,0.212,0.564,0.484,0.701C64.817,59.572,64.758,59.303,64.679,59.101z M68.79,57.577
			c-0.321-0.038-0.847,0.687-1.151,1.724c-0.068,0.254-0.157,0.527-0.243,0.811c-0.077,0.777,0.046,1.465,0.426,1.637
			c0.466,0.21,0.993-0.838,1.231-2.08C69.253,58.607,69.11,57.615,68.79,57.577z"/>
		<path d="M77.354,59.814c-0.893,0.189-1.452-0.506-1.414-1.521c0.035-0.842,0.501-1.885,0.85-2.574
			c-0.422,0.461-0.913,0.717-1.271,0.812c-0.422,2.273-1.281,4.068-2.654,4.461c-1.465,0.418-2.348-0.886-1.992-2.57
			c0.346-1.633,1.354-2.597,2.021-2.416c0.337,0.096,0.589,0.202,0.842,0.407c0.272,0.226,0.34,0.94,0.035,1.655
			c-0.356,0.852-1.055,1.35-2.039,0.918c-0.088,1.154,0.403,1.829,1,1.694c1.289-0.284,2.074-2.456,2.317-4.099
			c-0.992-0.131-0.271-1.975,0.21-2.129c0.356-0.107,0.43,0.629,0.342,1.461c0.391-0.167,0.746-0.461,1.117-0.883
			c0.114-0.131,0.203-0.217,0.315-0.123c0.3,0.193,0.738,0.672,0.493,1.146c-0.383,0.75-0.764,1.695-0.791,2.373
			c-0.026,0.691,0.236,1.117,0.588,1.035c0.491-0.107,0.878-1.03,1.019-1.986c0.021-0.105,0.097-0.15,0.171-0.059
			c0.092,0.111,0.195,0.406,0.145,0.768C78.553,58.959,78,59.678,77.354,59.814z M72.981,57.77c0.243-0.574,0.325-1.242,0.141-1.328
			c-0.313-0.152-1.068,0.832-1.315,2.041c-0.02,0.066-0.021,0.154-0.041,0.221C72.427,58.9,72.752,58.303,72.981,57.77z"/>
		<path d="M80.967,55.53c-0.051-0.097-0.059-0.171,0.072-0.192c0.635-0.133,1.457-0.49,1.99-0.633
			c0.58-0.156,0.871,0.051,1.031,0.369c0.051,0.098,0.047,0.174-0.085,0.195c-0.863,0.158-1.46,0.529-1.999,0.648
			C81.426,56.041,81.129,55.859,80.967,55.53z"/>
	</g>
</g>
</svg>
